<?xml version="1.0" standalone="no"?>
<!DOCTYPE svg PUBLIC "-//W3C//DTD SVG 20010904//EN"
 "http://www.w3.org/TR/2001/REC-SVG-20010904/DTD/svg10.dtd">
<svg version="1.0" xmlns="http://www.w3.org/2000/svg"
 width="260.000000pt" height="260.000000pt" viewBox="0 0 260.000000 260.000000"
 preserveAspectRatio="xMidYMid meet">
<metadata>
Created by potrace 1.11, written by Peter Selinger 2001-2013
</metadata>
<g transform="translate(0.000000,260.000000) scale(0.100000,-0.100000)"
fill="#000000" stroke="none">
<path d="M1840 2460 c-14 -4 -33 -6 -42 -4 -10 1 -18 -1 -18 -6 0 -4 -12 -7
-27 -7 -16 0 -41 -6 -58 -13 -16 -7 -36 -12 -42 -11 -7 1 -13 -3 -13 -9 0 -6
-5 -8 -11 -5 -5 4 -28 -5 -49 -19 -22 -14 -44 -26 -49 -26 -9 0 -123 -111
-146 -142 -22 -30 -45 -77 -45 -92 0 -9 -5 -16 -11 -16 -5 0 -8 -4 -4 -9 3 -5
1 -12 -4 -16 -6 -3 -13 -26 -17 -50 -3 -25 -9 -45 -13 -46 -21 -4 -138 -4
-148 -1 -7 2 -13 10 -13 17 0 19 -59 73 -115 106 -70 41 -124 55 -248 64 -32
3 -62 7 -67 10 -5 3 -11 2 -14 -3 -2 -4 -22 -9 -42 -10 -21 -2 -41 -5 -44 -8
-3 -3 -5 -62 -5 -132 0 -102 -3 -126 -15 -129 -8 -3 -22 -7 -30 -10 -8 -4 -17
-7 -20 -7 -12 -3 -79 -30 -120 -49 -50 -23 -110 -75 -110 -94 0 -7 -4 -13 -9
-13 -9 0 -7 -133 3 -185 4 -16 9 -46 12 -65 2 -19 9 -44 14 -55 5 -11 16 -40
24 -65 8 -25 26 -67 39 -93 14 -26 23 -47 21 -47 -3 0 0 -6 6 -12 6 -7 29 -42
52 -77 55 -83 230 -261 257 -261 5 0 11 -3 13 -7 4 -9 65 -53 73 -53 3 0 22
-11 43 -24 20 -12 40 -24 45 -24 4 -1 15 -5 23 -10 16 -9 8 -13 -46 -27 -20
-5 -70 -37 -70 -46 0 -6 -4 -7 -10 -4 -14 8 -25 -45 -13 -64 11 -17 86 -72 91
-66 2 2 19 -3 37 -11 19 -8 46 -14 60 -14 14 0 25 -4 25 -8 0 -4 12 -7 28 -6
15 1 31 -1 36 -4 38 -22 373 -20 491 3 109 20 139 29 186 52 61 29 78 47 79
83 0 19 -11 33 -47 56 -27 17 -64 35 -83 39 l-35 8 55 27 c76 37 147 80 135
80 -5 0 6 8 25 18 38 18 188 163 235 227 34 45 47 66 72 115 10 19 20 37 23
40 10 9 61 136 66 165 3 16 8 33 11 38 3 6 8 20 10 31 17 101 21 147 20 199
-2 57 -4 61 -47 99 -24 22 -68 50 -98 64 -33 15 -51 29 -48 37 3 6 11 31 18
55 7 23 15 42 19 42 4 0 6 8 4 18 -1 9 1 24 6 33 11 21 23 127 23 209 1 36 5
68 10 72 6 4 5 12 -2 20 -6 8 -12 38 -14 67 -2 45 -7 55 -23 59 -36 7 -279 10
-305 2z m138 -54 c7 -4 12 -4 12 1 0 4 18 8 40 8 22 0 40 -4 40 -8 0 -5 5 -5
10 -2 31 19 -8 -24 -161 -177 -102 -102 -174 -167 -178 -160 -3 6 -5 39 -4 74
1 35 0 74 -3 87 -5 22 -6 23 -19 5 -10 -14 -10 -21 -2 -26 8 -5 7 -8 -3 -8
-13 0 -13 -1 0 -10 11 -7 11 -10 2 -10 -10 0 -10 -5 -1 -21 8 -15 8 -19 0 -15
-6 4 -11 2 -11 -3 0 -6 6 -11 13 -11 9 0 9 -2 0 -8 -8 -5 -9 -13 -3 -22 5 -9
5 -19 -1 -26 -7 -8 -6 -14 1 -19 7 -4 7 -12 -1 -27 -14 -25 -363 -378 -375
-378 -11 0 -11 173 0 250 8 58 23 125 33 150 4 8 7 17 7 20 4 19 32 77 43 88
7 7 13 19 13 25 0 7 12 23 25 36 14 13 25 27 25 32 0 5 5 9 11 9 7 0 20 10 31
23 11 12 23 22 26 22 4 0 19 9 34 19 31 20 154 65 181 66 9 0 17 6 18 13 0 9
2 9 6 -1 2 -6 8 -10 12 -8 4 3 31 7 61 11 30 3 55 7 57 8 5 5 50 0 61 -7z
m142 -140 c-2 -144 -3 -156 -12 -156 -4 0 -5 -7 -2 -15 4 -8 1 -22 -6 -30 -10
-12 -10 -15 1 -15 12 0 12 -2 1 -9 -8 -4 -13 -11 -13 -15 6 -37 -61 -176 -110
-229 -21 -23 -39 -46 -39 -50 0 -5 -4 -5 -10 -2 -5 3 -10 2 -10 -4 0 -5 -37
-28 -82 -50 -83 -40 -234 -79 -264 -67 -8 3 -13 2 -10 -3 7 -11 -188 -9 -195
2 -8 12 169 190 181 182 5 -3 11 -1 14 3 3 5 26 6 51 2 25 -4 48 -4 50 1 3 4
14 5 24 2 10 -3 22 0 25 6 7 11 0 13 -56 15 -15 1 -30 5 -34 9 -4 4 -13 2 -20
-4 -8 -7 -14 -7 -19 0 -6 11 522 547 531 538 3 -2 4 -52 4 -111z m-1216 -167
c6 -5 17 -9 26 -9 20 0 122 -63 122 -76 1 -5 9 -15 19 -22 11 -7 19 -19 19
-26 0 -6 6 -18 13 -25 6 -6 12 -15 12 -19 1 -4 6 -23 12 -42 7 -19 14 -53 17
-75 2 -22 8 -49 12 -59 5 -13 4 -17 -4 -12 -9 5 -10 1 -4 -16 4 -13 7 -30 6
-38 -1 -8 -2 -21 -3 -28 -1 -9 -8 -8 -25 5 -13 10 -23 19 -21 21 1 2 -42 47
-96 100 -63 62 -103 110 -108 130 -5 18 -6 32 -2 32 4 0 6 13 3 29 -6 43 -32
29 -32 -17 l0 -36 -98 99 c-93 95 -97 100 -72 105 34 7 192 -9 204 -21z m-11
-244 c193 -194 230 -236 213 -240 -29 -6 -116 -2 -116 6 0 3 -10 5 -22 4 -31
-2 -131 26 -140 39 -4 6 -8 7 -8 3 0 -10 -24 9 -74 59 -35 36 -80 124 -81 159
0 6 -3 15 -7 20 -10 16 -13 185 -3 185 2 0 109 -106 238 -235z m380 25 c-2
-68 -2 -178 0 -242 1 -48 5 -58 24 -67 13 -6 87 -9 180 -7 136 3 176 6 203 16
3 1 15 1 28 0 12 -1 22 2 22 7 0 5 9 9 20 10 31 3 142 54 183 86 20 16 37 26
37 22 0 -4 12 8 28 27 66 80 72 85 97 80 14 -2 25 -9 25 -14 0 -6 7 -8 15 -4
8 3 15 2 15 -3 0 -4 12 -13 26 -20 41 -18 91 -91 63 -91 -5 0 -8 -3 -6 -8 1
-4 -8 -17 -21 -30 -12 -12 -22 -19 -22 -15 0 3 -8 0 -18 -9 -15 -12 -68 -40
-82 -42 -3 -1 -9 -4 -15 -7 -5 -4 -26 -10 -45 -14 -19 -4 -39 -11 -45 -15 -5
-4 -39 -13 -75 -20 -36 -6 -74 -14 -85 -16 -51 -10 -73 -14 -110 -19 -22 -3
-56 -8 -75 -10 -19 -3 -120 -7 -225 -10 -104 -3 -191 -8 -193 -10 -3 -2 -13 0
-23 6 -13 7 -19 6 -19 -1 0 -6 -5 -8 -10 -5 -6 3 -47 8 -93 10 -45 3 -107 7
-137 11 -30 4 -63 6 -73 6 -9 0 -15 2 -13 6 2 4 -11 7 -30 6 -19 -1 -34 1 -34
5 0 3 -10 6 -22 7 -21 0 -54 6 -117 19 -14 2 -54 15 -90 27 -36 12 -69 21 -74
20 -4 -1 -7 3 -7 9 0 6 -7 9 -15 5 -8 -3 -15 -2 -15 3 0 5 -13 14 -28 20 -75
31 -103 94 -59 132 31 27 111 68 176 90 67 23 81 24 81 2 0 -26 53 -114 94
-156 38 -39 123 -87 156 -87 11 0 20 -4 20 -8 0 -11 1 -11 159 -17 119 -5 135
-3 147 12 14 20 17 230 3 238 -4 3 -6 14 -4 25 2 11 -2 20 -8 20 -7 0 -6 4 3
10 10 6 11 10 3 10 -7 0 -12 3 -12 8 1 4 0 9 -1 12 -12 32 -7 35 44 30 l51 -5
-2 -45z"/>
<path d="M230 318 c-49 -46 -11 -102 70 -104 55 -1 65 -6 57 -29 -5 -11 -23
-15 -77 -15 -64 0 -70 -2 -70 -20 0 -20 5 -21 83 -18 59 2 81 6 80 16 -2 6 2
12 7 12 16 0 12 60 -5 77 -10 9 -36 16 -70 16 -42 1 -55 5 -58 19 -6 21 12 28
77 28 40 0 53 4 53 15 0 8 -5 15 -11 16 -84 8 -117 5 -136 -13z"/>
<path d="M446 331 c-3 -4 -5 -51 -4 -104 0 -72 3 -97 13 -97 17 0 22 16 20 63
-2 51 10 47 36 -13 24 -55 44 -64 59 -25 5 14 14 25 20 25 6 0 9 3 6 8 -2 4 2
18 10 32 13 24 13 22 14 -33 0 -50 3 -58 17 -55 15 3 18 16 18 88 1 144 -8
150 -63 47 -20 -37 -41 -66 -46 -64 -6 2 -24 31 -41 65 -29 59 -49 80 -59 63z"/>
<path d="M763 322 c-31 -15 -59 -64 -47 -83 3 -5 1 -9 -5 -9 -7 0 -7 -8 -1
-25 5 -13 5 -27 1 -30 -5 -3 -7 -14 -4 -25 8 -28 38 -21 37 8 -1 20 3 22 57
22 56 0 59 -1 59 -25 0 -17 6 -25 18 -25 15 0 17 11 17 94 0 52 -4 98 -8 102
-14 14 -92 12 -124 -4z m99 -53 c6 -42 -11 -56 -63 -52 -23 2 -45 6 -48 8 -9
10 -9 35 0 35 6 0 8 4 4 9 -8 15 26 30 66 31 33 0 37 -3 41 -31z"/>
<path d="M959 335 c-1 0 -3 -46 -4 -102 -2 -94 -1 -103 16 -103 15 0 18 9 17
63 -1 110 -4 104 50 105 63 2 77 -7 61 -41 -10 -21 -18 -25 -45 -23 -42 3 -59
-7 -51 -29 4 -9 11 -14 16 -10 5 3 17 -5 25 -17 9 -12 16 -18 16 -13 0 5 7 -1
16 -13 9 -14 25 -22 42 -22 l27 1 -31 28 -31 28 25 20 c17 14 25 31 25 52 0
16 5 28 10 24 5 -3 1 6 -8 21 -10 14 -22 27 -29 27 -8 1 -141 5 -147 4z"/>
<path d="M1181 332 c-6 -2 -11 -10 -11 -18 0 -10 12 -14 40 -14 l40 0 0 -85
c0 -77 2 -85 19 -85 20 0 24 29 6 42 -6 5 -6 8 2 8 12 0 12 17 0 36 -3 6 -3
14 0 18 11 11 10 46 -1 46 -27 1 22 20 51 20 25 0 30 4 27 18 -4 14 -17 17
-83 18 -43 0 -84 -2 -90 -4z"/>
<path d="M1512 326 c-4 -6 -7 -53 -8 -104 -1 -80 1 -92 15 -90 12 3 16 15 15
56 0 28 3 52 8 52 4 0 8 -6 8 -13 0 -9 16 -13 52 -12 40 0 52 4 54 17 3 20
-19 26 -80 22 -40 -3 -46 -1 -44 14 4 26 18 32 73 32 56 0 86 12 64 26 -21 12
-149 13 -157 0z"/>
<path d="M1741 319 c-25 -23 -24 -19 -26 -87 -2 -74 24 -102 95 -102 42 0 55
5 75 26 21 22 24 35 22 83 -3 75 -24 97 -94 98 -38 1 -56 -4 -72 -18z m126
-33 c10 -10 6 -97 -5 -108 -14 -14 -89 -15 -103 -1 -15 15 -21 93 -8 93 6 0 8
4 5 9 -15 24 89 30 111 7z"/>
<path d="M1985 314 c-25 -27 -29 -38 -26 -84 1 -14 2 -33 2 -42 0 -10 4 -18
10 -18 5 0 9 -6 9 -14 0 -19 22 -26 78 -26 52 1 77 15 90 51 12 32 7 112 -7
117 -6 2 -11 10 -11 18 0 8 -1 14 -2 14 -2 1 -29 3 -60 6 -53 5 -59 4 -83 -22z
m131 -36 c9 -31 7 -89 -5 -101 -13 -13 -90 -11 -107 4 -17 14 -19 90 -2 107 7
7 33 12 59 12 41 0 49 -3 55 -22z"/>
<path d="M2223 333 c-9 -3 -13 -33 -13 -104 l0 -99 65 0 c57 0 69 3 91 25 22
22 25 33 23 82 -3 73 -27 96 -102 98 -28 1 -58 0 -64 -2z m125 -47 c11 -18 9
-100 -2 -108 -6 -4 -31 -8 -56 -8 l-46 0 2 63 c1 34 2 63 3 65 3 8 93 -3 99
-12z"/>
</g>
</svg>
